<svg version="1.1" id="Layer_1" xmlns="http://www.w3.org/2000/svg" xmlns:xlink="http://www.w3.org/1999/xlink" x="0px" y="0px"
	 width="100%" viewBox="0 0 1536 1024" enable-background="new 0 0 1536 1024" xml:space="preserve">
<path fill="#FEFEFE" opacity="1.000000" stroke="none" 
	d="
M998.000000,1025.000000 
	C665.333313,1025.000000 333.166656,1025.000000 1.000000,1025.000000 
	C1.000000,683.666687 1.000000,342.333344 1.000000,1.000000 
	C513.000000,1.000000 1025.000000,1.000000 1537.000000,1.000000 
	C1537.000000,342.333344 1537.000000,683.666687 1537.000000,1025.000000 
	C1357.500000,1025.000000 1178.000000,1025.000000 998.000000,1025.000000 
M346.200714,549.293579 
	C346.200714,549.293579 346.410187,549.404846 346.867767,549.216248 
	C347.156555,549.022888 347.342102,548.757324 347.088318,547.973267 
	C347.204620,548.119385 347.320892,548.265503 347.889679,548.197449 
	C348.060577,547.917725 348.231445,547.638062 348.080688,547.088074 
	C348.080688,547.088074 348.374695,547.388245 348.851166,547.177979 
	C349.024323,546.884949 349.197479,546.591858 349.242584,546.236633 
	C349.242584,546.236633 349.284637,546.372620 349.821533,546.127258 
	C350.026672,545.797180 350.231812,545.467102 350.993866,544.837341 
	C353.042175,542.696594 355.090515,540.555847 357.690002,538.136902 
	C357.907013,537.794678 358.124023,537.452454 358.924011,536.834717 
	C378.139465,517.673706 397.120453,498.268188 416.705078,479.492249 
	C423.048645,473.410645 423.122803,465.844177 425.601257,458.169769 
	C393.627502,458.169769 362.353851,458.152527 331.080597,458.250183 
	C330.108673,458.253204 328.472260,459.287781 328.277863,460.109344 
	C326.913879,465.873108 325.847748,471.707367 324.565155,478.125732 
	C344.694458,478.125732 364.234161,478.125732 384.710754,478.125732 
	C383.350494,479.703339 382.695801,480.565613 381.938690,481.325867 
	C357.975983,505.388367 334.367828,529.822998 309.808136,553.260376 
	C302.522491,560.213135 302.873138,568.257080 300.660370,576.624268 
	C333.465210,576.624268 365.566772,576.624268 398.167694,576.624268 
	C398.769440,573.461853 399.384216,570.230774 400.322815,566.456055 
	C400.463226,565.636536 400.603607,564.817078 401.009521,563.316528 
	C401.157990,562.116821 401.306458,560.917175 401.826080,559.207764 
	C403.002808,555.432129 400.020782,556.462097 398.396393,556.453918 
	C380.600586,556.364075 362.804352,556.376587 345.008209,556.345764 
	C343.646515,556.343384 342.285004,556.222900 340.604950,556.141968 
	C341.247040,555.056335 341.569366,554.511353 342.424774,553.688477 
	C343.338196,552.641602 344.251617,551.594727 345.710846,550.282715 
	C345.951996,549.966675 346.193146,549.650696 346.200714,549.293579 
M717.983521,564.668091 
	C718.321838,568.583801 718.660095,572.499512 719.034668,576.834839 
	C725.112122,576.834839 730.810181,576.344360 736.382324,576.971741 
	C742.033997,577.608093 744.498901,575.191772 746.793213,570.405457 
	C758.921082,545.104126 771.396179,519.969238 783.963623,494.342865 
	C786.476501,521.972046 788.952454,549.195312 791.459839,576.764282 
	C798.502686,576.764282 804.976440,576.577820 811.432068,576.839111 
	C814.911072,576.979919 816.706970,575.823975 818.238647,572.611572 
	C836.070618,535.213257 854.073608,497.896454 872.010620,460.548187 
	C872.324524,459.894623 872.382080,459.117950 872.632263,458.101959 
	C864.748413,458.101959 857.252441,458.282684 849.772522,458.014832 
	C846.692688,457.904541 845.445312,459.117157 844.300171,461.739929 
	C836.645996,479.270477 828.821655,496.726685 821.067078,514.213440 
	C817.606934,522.016113 814.180298,529.833618 810.738464,537.644348 
	C810.474365,537.565674 810.210327,537.486938 809.946228,537.408264 
	C807.218323,511.142731 804.490417,484.877167 801.709106,458.096649 
	C796.110901,458.096649 790.806824,458.309814 785.530701,458.018341 
	C782.261902,457.837769 780.530457,458.828278 779.032532,461.857056 
	C767.010498,486.164856 754.793335,510.376129 742.609680,534.603760 
	C742.090576,535.636108 741.314941,536.539551 740.411011,537.866821 
	C739.038147,510.947083 737.701599,484.738190 736.362000,458.471252 
	C727.207153,458.471252 718.331665,458.471252 708.942139,458.471252 
	C711.982300,493.855042 714.984619,528.798889 717.983521,564.668091 
M797.450378,373.132263 
	C784.874023,374.391174 772.287964,375.560699 759.722961,376.924500 
	C705.063782,382.857086 650.988892,392.170807 597.538940,405.081665 
	C552.683105,415.916626 508.489960,428.837006 465.905243,446.829193 
	C464.433990,447.450775 463.003937,448.169891 461.554688,448.843536 
	C461.722778,449.231537 461.890869,449.619537 462.058990,450.007507 
	C462.974854,449.794708 463.910339,449.643646 464.803772,449.360138 
	C506.558014,436.113708 548.858337,424.929901 591.665405,415.638428 
	C636.593506,405.886536 681.817139,397.737976 727.555908,393.096863 
	C763.122803,389.487885 798.786499,386.236145 834.487427,384.734650 
	C862.879028,383.540588 891.420044,384.577698 919.844971,385.790070 
	C969.020813,387.887482 1017.659973,394.841522 1065.386841,406.749023 
	C1078.861328,410.110809 1090.847778,411.434784 1103.446899,405.198486 
	C1108.234985,402.828522 1113.681641,401.789307 1119.376587,399.968201 
	C1112.652832,394.515411 1106.708496,389.426331 1100.449097,384.760101 
	C1098.177612,383.066803 1095.251343,381.785980 1092.458008,381.327545 
	C1036.677856,372.173187 980.478271,367.448944 923.987061,368.246399 
	C882.104126,368.837646 840.248596,371.374084 797.450378,373.132263 
M584.967529,576.740417 
	C586.048340,575.447510 587.807495,574.295593 588.109863,572.840881 
	C594.166931,543.705322 600.028992,514.529236 605.993652,485.374329 
	C608.111206,475.023651 610.395752,464.707153 612.650879,454.156006 
	C603.819946,454.156006 595.543518,454.156006 587.120789,454.156006 
	C584.131836,468.261902 581.177795,482.202942 578.242920,496.053558 
	C558.720520,486.458466 540.154236,487.191986 523.640503,500.754974 
	C506.060791,515.193481 502.129181,535.256042 504.908203,556.766968 
	C506.348969,567.919006 513.634766,574.843811 524.579468,577.433289 
	C534.019958,579.666809 543.411743,579.263489 552.371094,575.224304 
	C556.547058,573.341553 560.515259,570.998047 564.674927,568.812317 
	C564.396851,571.394470 564.133911,573.835876 563.821228,576.739380 
	C570.811523,576.739380 577.438232,576.739380 584.967529,576.740417 
M1040.540161,569.147705 
	C1041.973267,561.293579 1043.261475,553.407715 1044.970703,545.614136 
	C1045.285889,544.177185 1047.199951,542.235291 1048.562256,542.071045 
	C1051.006714,541.776245 1053.875732,540.515869 1055.811279,544.228455 
	C1059.728882,551.742615 1064.929810,558.633789 1068.395752,566.325195 
	C1072.301147,574.991699 1077.999268,578.250366 1087.322266,576.927307 
	C1092.752563,576.156616 1098.381592,576.787048 1105.206421,576.787048 
	C1094.897583,560.844116 1085.442993,546.222473 1075.862183,531.405396 
	C1090.481934,518.284485 1104.885132,505.357941 1119.984131,491.806946 
	C1110.429321,491.806946 1101.792480,491.558563 1093.185425,491.955048 
	C1090.527832,492.077454 1087.412109,493.355347 1085.428345,495.133209 
	C1075.386841,504.132538 1065.699097,513.525330 1055.753540,522.634277 
	C1054.181030,524.074585 1051.926025,524.769897 1049.263916,526.197144 
	C1054.274048,501.273376 1058.981079,477.856598 1063.727783,454.243164 
	C1054.953491,454.243164 1046.692139,454.243164 1038.208740,454.243164 
	C1030.009888,495.038422 1021.856262,535.609314 1013.629822,576.542480 
	C1022.455322,576.542480 1030.685913,576.542480 1039.187012,576.542480 
	C1039.585327,574.192383 1039.943115,572.081360 1040.540161,569.147705 
M602.867554,559.307007 
	C603.834900,569.110168 608.332947,574.597717 617.720947,576.911804 
	C628.136963,579.479248 638.497192,579.189575 648.636658,575.460571 
	C652.419495,574.069275 656.125854,572.470459 660.199585,570.832581 
	C660.199585,573.043762 660.199585,574.790894 660.199585,576.529907 
	C668.104004,576.529907 675.698608,576.529907 683.575012,576.529907 
	C687.611450,556.074402 691.851562,535.903748 695.489563,515.625000 
	C697.463562,504.621399 691.992126,496.485931 681.336731,492.933472 
	C678.824158,492.095764 676.229492,491.401093 673.617920,490.979797 
	C657.387146,488.361328 641.457520,490.625244 625.636719,494.202423 
	C624.648804,494.425781 623.207581,495.167480 623.005493,495.937744 
	C621.557007,501.459473 620.375000,507.051086 618.976929,513.198486 
	C624.445190,511.837769 629.046936,510.016663 633.759460,509.660492 
	C643.622986,508.915039 653.550720,508.617584 663.440186,508.796417 
	C667.947815,508.877960 670.651978,512.155029 670.351624,516.933350 
	C670.180359,519.657043 669.421875,522.343811 668.948608,524.933594 
	C656.649231,524.933594 644.939209,523.986084 633.442383,525.148132 
	C614.584534,527.054199 603.010315,540.369690 602.867554,559.307007 
M499.109985,523.977661 
	C499.072693,520.319580 499.362427,516.622559 498.932953,513.011108 
	C497.898193,504.309998 493.725983,497.024567 485.448029,494.032990 
	C465.204681,486.717285 445.379791,487.569031 427.749207,501.141632 
	C413.125732,512.399292 408.730255,528.745239 408.200256,546.266296 
	C407.709198,562.498535 415.784363,572.864746 431.372864,576.623840 
	C448.175537,580.675720 464.757172,577.978210 481.236908,574.308167 
	C482.103912,574.115112 483.200104,573.038330 483.422943,572.175110 
	C484.894714,566.473022 486.156433,560.716797 487.614777,554.425293 
	C485.822540,554.999939 484.764008,555.480591 483.655487,555.672668 
	C473.384186,557.452454 463.139465,560.335693 452.818451,560.650269 
	C438.231323,561.094910 432.493591,554.495300 434.298370,541.747681 
	C454.675171,541.747681 475.109039,541.747681 495.824768,541.747681 
	C496.931122,535.909424 497.980621,530.371460 499.109985,523.977661 
M902.702637,490.079895 
	C893.463562,490.837952 884.525513,492.811859 876.765503,498.098511 
	C857.554993,511.186066 851.518616,530.321655 852.886169,552.403687 
	C853.643372,564.631226 861.078064,572.111267 872.340637,575.740051 
	C876.877563,577.201904 881.737366,578.096497 886.498108,578.349976 
	C902.674927,579.211304 918.333679,577.221252 930.758606,565.555481 
	C944.289429,552.851318 949.056091,536.282349 948.072632,518.374512 
	C947.217163,502.796631 938.864624,494.120850 923.497803,491.271606 
	C917.021790,490.070831 910.273193,490.340118 902.702637,490.079895 
M1125.021606,501.527405 
	C1110.973877,517.485718 1115.913208,534.575562 1136.274536,540.394104 
	C1138.508423,541.032410 1140.790283,541.506531 1143.056641,542.026917 
	C1148.556519,543.289856 1154.193604,544.147339 1159.499023,545.971985 
	C1161.733154,546.740295 1164.905029,549.691345 1164.744751,551.373352 
	C1164.498047,553.963257 1161.987305,556.542786 1159.958374,558.669983 
	C1158.962891,559.713440 1156.919556,559.881104 1155.301514,560.187683 
	C1140.486328,562.995056 1126.324585,559.820312 1111.968140,555.282043 
	C1110.680298,561.267090 1109.399170,567.220032 1108.064453,573.422546 
	C1109.374878,573.872314 1110.427002,574.304688 1111.516846,574.596680 
	C1126.309570,578.559570 1141.366455,579.882385 1156.502686,577.693176 
	C1166.905029,576.188599 1177.193604,573.692017 1184.539429,565.058228 
	C1196.715942,550.746704 1191.903442,533.153381 1174.188965,527.505188 
	C1170.712524,526.396729 1167.099487,525.689636 1163.519653,524.938721 
	C1158.801025,523.948730 1154.018188,523.245361 1149.330200,522.135254 
	C1146.275024,521.411865 1142.841553,520.557068 1142.814087,516.431458 
	C1142.785156,512.091797 1145.521240,509.523102 1149.475342,508.908203 
	C1154.850098,508.072388 1160.385132,507.164917 1165.746460,507.595612 
	C1174.288696,508.281952 1182.744507,510.046265 1191.551147,511.403168 
	C1192.556030,505.973053 1193.630859,500.166168 1194.739868,494.173828 
	C1180.475708,489.858704 1166.264893,488.924103 1151.939453,490.468231 
	C1142.259521,491.511566 1132.932617,494.018646 1125.021606,501.527405 
M986.100586,522.085144 
	C995.189758,514.503845 1005.745300,511.563599 1017.857178,512.325378 
	C1019.367615,505.110565 1020.867126,497.947937 1022.454346,490.366119 
	C1009.684753,489.699036 999.608459,494.283752 989.757690,501.440948 
	C990.008423,497.801086 990.205261,494.944000 990.400940,492.102936 
	C982.251892,492.102936 974.525330,492.102936 966.682007,492.102936 
	C961.131836,520.409607 955.653320,548.350891 950.137146,576.483948 
	C959.072937,576.483948 967.325317,576.483948 975.653625,576.483948 
	C979.137207,558.435730 982.567322,540.664429 986.100586,522.085144 
M1118.732788,408.253479 
	C1100.250610,415.618195 1081.768311,422.982941 1063.286133,430.347656 
	C1074.186646,431.515991 1084.830078,430.960968 1095.390869,431.658783 
	C1108.121216,432.499969 1119.724121,430.487305 1129.993042,422.496735 
	C1131.931885,420.988068 1134.362915,420.105896 1136.582520,418.964966 
	C1147.289795,413.461121 1158.002197,407.967590 1169.741455,401.942505 
	C1147.966064,390.076843 1127.025391,378.666077 1106.084839,367.255310 
	C1105.845947,367.584747 1105.607056,367.914185 1105.368164,368.243622 
	C1114.946655,379.230103 1124.525146,390.216614 1134.674072,401.857422 
	C1129.221313,404.063812 1124.342285,406.038025 1118.732788,408.253479 
z"/>
<path fill="#F69126" opacity="1.000000" stroke="none" 
	d="
M717.985229,564.205444 
	C714.984619,528.798889 711.982300,493.855042 708.942139,458.471252 
	C718.331665,458.471252 727.207153,458.471252 736.362000,458.471252 
	C737.701599,484.738190 739.038147,510.947083 740.411011,537.866821 
	C741.314941,536.539551 742.090576,535.636108 742.609680,534.603760 
	C754.793335,510.376129 767.010498,486.164856 779.032532,461.857056 
	C780.530457,458.828278 782.261902,457.837769 785.530701,458.018341 
	C790.806824,458.309814 796.110901,458.096649 801.709106,458.096649 
	C804.490417,484.877167 807.218323,511.142731 809.946228,537.408264 
	C810.210327,537.486938 810.474365,537.565674 810.738464,537.644348 
	C814.180298,529.833618 817.606934,522.016113 821.067078,514.213440 
	C828.821655,496.726685 836.645996,479.270477 844.300171,461.739929 
	C845.445312,459.117157 846.692688,457.904541 849.772522,458.014832 
	C857.252441,458.282684 864.748413,458.101959 872.632263,458.101959 
	C872.382080,459.117950 872.324524,459.894623 872.010620,460.548187 
	C854.073608,497.896454 836.070618,535.213257 818.238647,572.611572 
	C816.706970,575.823975 814.911072,576.979919 811.432068,576.839111 
	C804.976440,576.577820 798.502686,576.764282 791.459839,576.764282 
	C788.952454,549.195312 786.476501,521.972046 783.963623,494.342865 
	C771.396179,519.969238 758.921082,545.104126 746.793213,570.405457 
	C744.498901,575.191772 742.033997,577.608093 736.382324,576.971741 
	C730.810181,576.344360 725.112122,576.834839 719.034668,576.834839 
	C718.660095,572.499512 718.321838,568.583801 717.985229,564.205444 
z"/>
<path fill="#F79328" opacity="1.000000" stroke="none" 
	d="
M797.915649,373.088135 
	C840.248596,371.374084 882.104126,368.837646 923.987061,368.246399 
	C980.478271,367.448944 1036.677856,372.173187 1092.458008,381.327545 
	C1095.251343,381.785980 1098.177612,383.066803 1100.449097,384.760101 
	C1106.708496,389.426331 1112.652832,394.515411 1119.376587,399.968201 
	C1113.681641,401.789307 1108.234985,402.828522 1103.446899,405.198486 
	C1090.847778,411.434784 1078.861328,410.110809 1065.386841,406.749023 
	C1017.659973,394.841522 969.020813,387.887482 919.844971,385.790070 
	C891.420044,384.577698 862.879028,383.540588 834.487427,384.734650 
	C798.786499,386.236145 763.122803,389.487885 727.555908,393.096863 
	C681.817139,397.737976 636.593506,405.886536 591.665405,415.638428 
	C548.858337,424.929901 506.558014,436.113708 464.803772,449.360138 
	C463.910339,449.643646 462.974854,449.794708 462.058990,450.007507 
	C461.890869,449.619537 461.722778,449.231537 461.554688,448.843536 
	C463.003937,448.169891 464.433990,447.450775 465.905243,446.829193 
	C508.489960,428.837006 552.683105,415.916626 597.538940,405.081665 
	C650.988892,392.170807 705.063782,382.857086 759.722961,376.924500 
	C772.287964,375.560699 784.874023,374.391174 797.915649,373.088135 
z"/>
<path fill="#1D3E5F" opacity="1.000000" stroke="none" 
	d="
M584.516235,576.739868 
	C577.438232,576.739380 570.811523,576.739380 563.821228,576.739380 
	C564.133911,573.835876 564.396851,571.394470 564.674927,568.812317 
	C560.515259,570.998047 556.547058,573.341553 552.371094,575.224304 
	C543.411743,579.263489 534.019958,579.666809 524.579468,577.433289 
	C513.634766,574.843811 506.348969,567.919006 504.908203,556.766968 
	C502.129181,535.256042 506.060791,515.193481 523.640503,500.754974 
	C540.154236,487.191986 558.720520,486.458466 578.242920,496.053558 
	C581.177795,482.202942 584.131836,468.261902 587.120789,454.156006 
	C595.543518,454.156006 603.819946,454.156006 612.650879,454.156006 
	C610.395752,464.707153 608.111206,475.023651 605.993652,485.374329 
	C600.028992,514.529236 594.166931,543.705322 588.109863,572.840881 
	C587.807495,574.295593 586.048340,575.447510 584.516235,576.739868 
M571.846558,529.309692 
	C572.858154,523.951172 573.869812,518.592651 574.865356,513.319153 
	C562.687866,504.739563 546.845032,506.476807 538.148682,517.782593 
	C531.280945,526.711121 528.975098,537.277344 530.234009,548.369141 
	C531.106018,556.051758 534.973572,559.435486 542.680420,560.213440 
	C552.125977,561.166992 559.564392,556.234558 566.917236,551.352173 
	C567.643005,550.870300 567.711975,549.292175 567.945129,548.193115 
	C569.219788,542.183228 570.450439,536.164001 571.846558,529.309692 
z"/>
<path fill="#1B3D5E" opacity="1.000000" stroke="none" 
	d="
M401.454956,559.717468 
	C401.306458,560.917175 401.157990,562.116821 400.572144,563.718384 
	C400.089508,565.080017 400.044281,566.039856 399.999023,566.999695 
	C399.384216,570.230774 398.769440,573.461853 398.167694,576.624268 
	C365.566772,576.624268 333.465210,576.624268 300.660370,576.624268 
	C302.873138,568.257080 302.522491,560.213135 309.808136,553.260376 
	C334.367828,529.822998 357.975983,505.388367 381.938690,481.325867 
	C382.695801,480.565613 383.350494,479.703339 384.710754,478.125732 
	C364.234161,478.125732 344.694458,478.125732 324.565155,478.125732 
	C325.847748,471.707367 326.913879,465.873108 328.277863,460.109344 
	C328.472260,459.287781 330.108673,458.253204 331.080597,458.250183 
	C362.353851,458.152527 393.627502,458.169769 425.601257,458.169769 
	C423.122803,465.844177 423.048645,473.410645 416.705078,479.492249 
	C397.120453,498.268188 378.139465,517.673706 358.332825,537.082397 
	C357.540710,537.691772 357.339752,538.053406 357.138855,538.415100 
	C355.090515,540.555847 353.042175,542.696594 350.412323,545.070190 
	C349.648712,545.659546 349.466675,546.016113 349.284637,546.372620 
	C349.284637,546.372620 349.242584,546.236633 349.015015,546.304443 
	C348.649841,546.710876 348.512268,547.049561 348.374695,547.388245 
	C348.374695,547.388245 348.080688,547.088074 347.947083,547.240845 
	C347.688049,547.732910 347.562622,548.072327 347.437195,548.411682 
	C347.320892,548.265503 347.204620,548.119385 346.960815,548.190186 
	C346.692291,548.739746 346.551239,549.072266 346.410187,549.404846 
	C346.410187,549.404846 346.200714,549.293579 345.987305,549.360962 
	C345.570923,549.801514 345.367981,550.174683 345.165039,550.547852 
	C344.251617,551.594727 343.338196,552.641602 341.813110,553.900024 
	C340.519653,555.146729 339.837799,556.181885 338.641846,557.997559 
	C341.697327,557.997559 343.508728,557.997498 345.320099,557.997498 
	C362.088013,557.997498 378.856384,557.941528 395.623291,558.073242 
	C397.571350,558.088562 399.511261,559.144226 401.454956,559.717468 
z"/>
<path fill="#F69026" opacity="1.000000" stroke="none" 
	d="
M1040.420532,569.559021 
	C1039.943115,572.081360 1039.585327,574.192383 1039.187012,576.542480 
	C1030.685913,576.542480 1022.455322,576.542480 1013.629822,576.542480 
	C1021.856262,535.609314 1030.009888,495.038422 1038.208740,454.243164 
	C1046.692139,454.243164 1054.953491,454.243164 1063.727783,454.243164 
	C1058.981079,477.856598 1054.274048,501.273376 1049.263916,526.197144 
	C1051.926025,524.769897 1054.181030,524.074585 1055.753540,522.634277 
	C1065.699097,513.525330 1075.386841,504.132538 1085.428345,495.133209 
	C1087.412109,493.355347 1090.527832,492.077454 1093.185425,491.955048 
	C1101.792480,491.558563 1110.429321,491.806946 1119.984131,491.806946 
	C1104.885132,505.357941 1090.481934,518.284485 1075.862183,531.405396 
	C1085.442993,546.222473 1094.897583,560.844116 1105.206421,576.787048 
	C1098.381592,576.787048 1092.752563,576.156616 1087.322266,576.927307 
	C1077.999268,578.250366 1072.301147,574.991699 1068.395752,566.325195 
	C1064.929810,558.633789 1059.728882,551.742615 1055.811279,544.228455 
	C1053.875732,540.515869 1051.006714,541.776245 1048.562256,542.071045 
	C1047.199951,542.235291 1045.285889,544.177185 1044.970703,545.614136 
	C1043.261475,553.407715 1041.973267,561.293579 1040.420532,569.559021 
z"/>
<path fill="#1D3E5F" opacity="1.000000" stroke="none" 
	d="
M602.867310,558.848633 
	C603.010315,540.369690 614.584534,527.054199 633.442383,525.148132 
	C644.939209,523.986084 656.649231,524.933594 668.948608,524.933594 
	C669.421875,522.343811 670.180359,519.657043 670.351624,516.933350 
	C670.651978,512.155029 667.947815,508.877960 663.440186,508.796417 
	C653.550720,508.617584 643.622986,508.915039 633.759460,509.660492 
	C629.046936,510.016663 624.445190,511.837769 618.976929,513.198486 
	C620.375000,507.051086 621.557007,501.459473 623.005493,495.937744 
	C623.207581,495.167480 624.648804,494.425781 625.636719,494.202423 
	C641.457520,490.625244 657.387146,488.361328 673.617920,490.979797 
	C676.229492,491.401093 678.824158,492.095764 681.336731,492.933472 
	C691.992126,496.485931 697.463562,504.621399 695.489563,515.625000 
	C691.851562,535.903748 687.611450,556.074402 683.575012,576.529907 
	C675.698608,576.529907 668.104004,576.529907 660.199585,576.529907 
	C660.199585,574.790894 660.199585,573.043762 660.199585,570.832581 
	C656.125854,572.470459 652.419495,574.069275 648.636658,575.460571 
	C638.497192,579.189575 628.136963,579.479248 617.720947,576.911804 
	C608.332947,574.597717 603.834900,569.110168 602.867310,558.848633 
M639.706116,562.837585 
	C646.821594,560.843811 653.949585,558.892395 661.034668,556.796082 
	C661.813110,556.565796 662.757690,555.593445 662.925598,554.814392 
	C664.020630,549.732666 664.922363,544.609314 666.000122,538.902466 
	C661.538757,538.902466 657.709656,538.648071 653.927734,538.961731 
	C648.190125,539.437500 642.288696,539.623230 636.818970,541.193665 
	C630.739319,542.939148 627.217041,549.542236 628.071716,555.266418 
	C629.005737,561.522217 634.032593,562.056946 639.706116,562.837585 
z"/>
<path fill="#1D3E5F" opacity="1.000000" stroke="none" 
	d="
M499.070038,524.405518 
	C497.980621,530.371460 496.931122,535.909424 495.824768,541.747681 
	C475.109039,541.747681 454.675171,541.747681 434.298370,541.747681 
	C432.493591,554.495300 438.231323,561.094910 452.818451,560.650269 
	C463.139465,560.335693 473.384186,557.452454 483.655487,555.672668 
	C484.764008,555.480591 485.822540,554.999939 487.614777,554.425293 
	C486.156433,560.716797 484.894714,566.473022 483.422943,572.175110 
	C483.200104,573.038330 482.103912,574.115112 481.236908,574.308167 
	C464.757172,577.978210 448.175537,580.675720 431.372864,576.623840 
	C415.784363,572.864746 407.709198,562.498535 408.200256,546.266296 
	C408.730255,528.745239 413.125732,512.399292 427.749207,501.141632 
	C445.379791,487.569031 465.204681,486.717285 485.448029,494.032990 
	C493.725983,497.024567 497.898193,504.309998 498.932953,513.011108 
	C499.362427,516.622559 499.072693,520.319580 499.070038,524.405518 
M456.242615,507.611206 
	C446.319550,509.020538 439.000916,516.104919 437.448212,525.785278 
	C449.838654,525.785278 462.231537,525.785278 474.821167,525.785278 
	C474.906311,524.386230 474.978851,523.251160 475.043884,522.115601 
	C475.584534,512.673279 472.707062,508.961914 463.480103,507.523041 
	C461.380310,507.195618 459.196014,507.409912 456.242615,507.611206 
z"/>
<path fill="#F69026" opacity="1.000000" stroke="none" 
	d="
M903.175537,490.010559 
	C910.273193,490.340118 917.021790,490.070831 923.497803,491.271606 
	C938.864624,494.120850 947.217163,502.796631 948.072632,518.374512 
	C949.056091,536.282349 944.289429,552.851318 930.758606,565.555481 
	C918.333679,577.221252 902.674927,579.211304 886.498108,578.349976 
	C881.737366,578.096497 876.877563,577.201904 872.340637,575.740051 
	C861.078064,572.111267 853.643372,564.631226 852.886169,552.403687 
	C851.518616,530.321655 857.554993,511.186066 876.765503,498.098511 
	C884.525513,492.811859 893.463562,490.837952 903.175537,490.010559 
M892.677612,512.026978 
	C880.173218,521.685181 877.756836,535.068970 879.268982,549.616760 
	C879.840576,555.116516 883.846313,558.275269 889.178711,559.610657 
	C899.584717,562.216431 910.329651,557.902283 915.713806,548.350708 
	C920.550842,539.769653 922.731628,530.384216 921.901611,520.487549 
	C921.316895,513.515930 917.854431,510.104431 911.082092,508.747314 
	C904.739929,507.476471 898.899658,508.635284 892.677612,512.026978 
z"/>
<path fill="#F69127" opacity="1.000000" stroke="none" 
	d="
M1125.273926,501.277100 
	C1132.932617,494.018646 1142.259521,491.511566 1151.939453,490.468231 
	C1166.264893,488.924103 1180.475708,489.858704 1194.739868,494.173828 
	C1193.630859,500.166168 1192.556030,505.973053 1191.551147,511.403168 
	C1182.744507,510.046265 1174.288696,508.281952 1165.746460,507.595612 
	C1160.385132,507.164917 1154.850098,508.072388 1149.475342,508.908203 
	C1145.521240,509.523102 1142.785156,512.091797 1142.814087,516.431458 
	C1142.841553,520.557068 1146.275024,521.411865 1149.330200,522.135254 
	C1154.018188,523.245361 1158.801025,523.948730 1163.519653,524.938721 
	C1167.099487,525.689636 1170.712524,526.396729 1174.188965,527.505188 
	C1191.903442,533.153381 1196.715942,550.746704 1184.539429,565.058228 
	C1177.193604,573.692017 1166.905029,576.188599 1156.502686,577.693176 
	C1141.366455,579.882385 1126.309570,578.559570 1111.516846,574.596680 
	C1110.427002,574.304688 1109.374878,573.872314 1108.064453,573.422546 
	C1109.399170,567.220032 1110.680298,561.267090 1111.968140,555.282043 
	C1126.324585,559.820312 1140.486328,562.995056 1155.301514,560.187683 
	C1156.919556,559.881104 1158.962891,559.713440 1159.958374,558.669983 
	C1161.987305,556.542786 1164.498047,553.963257 1164.744751,551.373352 
	C1164.905029,549.691345 1161.733154,546.740295 1159.499023,545.971985 
	C1154.193604,544.147339 1148.556519,543.289856 1143.056641,542.026917 
	C1140.790283,541.506531 1138.508423,541.032410 1136.274536,540.394104 
	C1115.913208,534.575562 1110.973877,517.485718 1125.273926,501.277100 
z"/>
<path fill="#F69126" opacity="1.000000" stroke="none" 
	d="
M986.049072,522.489136 
	C982.567322,540.664429 979.137207,558.435730 975.653625,576.483948 
	C967.325317,576.483948 959.072937,576.483948 950.137146,576.483948 
	C955.653320,548.350891 961.131836,520.409607 966.682007,492.102936 
	C974.525330,492.102936 982.251892,492.102936 990.400940,492.102936 
	C990.205261,494.944000 990.008423,497.801086 989.757690,501.440948 
	C999.608459,494.283752 1009.684753,489.699036 1022.454346,490.366119 
	C1020.867126,497.947937 1019.367615,505.110565 1017.857178,512.325378 
	C1005.745300,511.563599 995.189758,514.503845 986.049072,522.489136 
z"/>
<path fill="#F79328" opacity="1.000000" stroke="none" 
	d="
M1119.098145,408.132843 
	C1124.342285,406.038025 1129.221313,404.063812 1134.674072,401.857422 
	C1124.525146,390.216614 1114.946655,379.230103 1105.368164,368.243622 
	C1105.607056,367.914185 1105.845947,367.584747 1106.084839,367.255310 
	C1127.025391,378.666077 1147.966064,390.076843 1169.741455,401.942505 
	C1158.002197,407.967590 1147.289795,413.461121 1136.582520,418.964966 
	C1134.362915,420.105896 1131.931885,420.988068 1129.993042,422.496735 
	C1119.724121,430.487305 1108.121216,432.499969 1095.390869,431.658783 
	C1084.830078,430.960968 1074.186646,431.515991 1063.286133,430.347656 
	C1081.768311,422.982941 1100.250610,415.618195 1119.098145,408.132843 
z"/>
<path fill="#1D3E5F" opacity="1.000000" stroke="none" 
	d="
M401.640503,559.462646 
	C399.511261,559.144226 397.571350,558.088562 395.623291,558.073242 
	C378.856384,557.941528 362.088013,557.997498 345.320099,557.997498 
	C343.508728,557.997498 341.697327,557.997559 338.641846,557.997559 
	C339.837799,556.181885 340.519653,555.146729 341.546570,554.038940 
	C341.569366,554.511353 341.247040,555.056335 340.604950,556.141968 
	C342.285004,556.222900 343.646515,556.343384 345.008209,556.345764 
	C362.804352,556.376587 380.600586,556.364075 398.396393,556.453918 
	C400.020782,556.462097 403.002808,555.432129 401.640503,559.462646 
z"/>
<path fill="#1D3E5F" opacity="1.000000" stroke="none" 
	d="
M400.160919,566.727905 
	C400.044281,566.039856 400.089508,565.080017 400.439392,564.058838 
	C400.603607,564.817078 400.463226,565.636536 400.160919,566.727905 
z"/>
<path fill="#1D3E5F" opacity="1.000000" stroke="none" 
	d="
M357.414429,538.276001 
	C357.339752,538.053406 357.540710,537.691772 358.041351,537.220215 
	C358.124023,537.452454 357.907013,537.794678 357.414429,538.276001 
z"/>
<path fill="#1D3E5F" opacity="1.000000" stroke="none" 
	d="
M349.553101,546.249939 
	C349.466675,546.016113 349.648712,545.659546 350.133850,545.220093 
	C350.231812,545.467102 350.026672,545.797180 349.553101,546.249939 
z"/>
<path fill="#1D3E5F" opacity="1.000000" stroke="none" 
	d="
M348.612915,547.283081 
	C348.512268,547.049561 348.649841,546.710876 349.079041,546.335449 
	C349.197479,546.591858 349.024323,546.884949 348.612915,547.283081 
z"/>
<path fill="#1D3E5F" opacity="1.000000" stroke="none" 
	d="
M347.663452,548.304565 
	C347.562622,548.072327 347.688049,547.732910 348.107910,547.375977 
	C348.231445,547.638062 348.060577,547.917725 347.663452,548.304565 
z"/>
<path fill="#1D3E5F" opacity="1.000000" stroke="none" 
	d="
M346.638977,549.310547 
	C346.551239,549.072266 346.692291,548.739746 347.128845,548.413391 
	C347.342102,548.757324 347.156555,549.022888 346.638977,549.310547 
z"/>
<path fill="#1D3E5F" opacity="1.000000" stroke="none" 
	d="
M345.437927,550.415283 
	C345.367981,550.174683 345.570923,549.801514 346.104065,549.381470 
	C346.193146,549.650696 345.951996,549.966675 345.437927,550.415283 
z"/>
<path fill="#FBFCFC" opacity="1.000000" stroke="none" 
	d="
M571.771362,529.728821 
	C570.450439,536.164001 569.219788,542.183228 567.945129,548.193115 
	C567.711975,549.292175 567.643005,550.870300 566.917236,551.352173 
	C559.564392,556.234558 552.125977,561.166992 542.680420,560.213440 
	C534.973572,559.435486 531.106018,556.051758 530.234009,548.369141 
	C528.975098,537.277344 531.280945,526.711121 538.148682,517.782593 
	C546.845032,506.476807 562.687866,504.739563 574.865356,513.319153 
	C573.869812,518.592651 572.858154,523.951172 571.771362,529.728821 
z"/>
<path fill="#FBFCFC" opacity="1.000000" stroke="none" 
	d="
M639.281494,562.831726 
	C634.032593,562.056946 629.005737,561.522217 628.071716,555.266418 
	C627.217041,549.542236 630.739319,542.939148 636.818970,541.193665 
	C642.288696,539.623230 648.190125,539.437500 653.927734,538.961731 
	C657.709656,538.648071 661.538757,538.902466 666.000122,538.902466 
	C664.922363,544.609314 664.020630,549.732666 662.925598,554.814392 
	C662.757690,555.593445 661.813110,556.565796 661.034668,556.796082 
	C653.949585,558.892395 646.821594,560.843811 639.281494,562.831726 
z"/>
<path fill="#FBFCFC" opacity="1.000000" stroke="none" 
	d="
M456.646606,507.493042 
	C459.196014,507.409912 461.380310,507.195618 463.480103,507.523041 
	C472.707062,508.961914 475.584534,512.673279 475.043884,522.115601 
	C474.978851,523.251160 474.906311,524.386230 474.821167,525.785278 
	C462.231537,525.785278 449.838654,525.785278 437.448212,525.785278 
	C439.000916,516.104919 446.319550,509.020538 456.646606,507.493042 
z"/>
<path fill="#FEFDFC" opacity="1.000000" stroke="none" 
	d="
M892.990417,511.827881 
	C898.899658,508.635284 904.739929,507.476471 911.082092,508.747314 
	C917.854431,510.104431 921.316895,513.515930 921.901611,520.487549 
	C922.731628,530.384216 920.550842,539.769653 915.713806,548.350708 
	C910.329651,557.902283 899.584717,562.216431 889.178711,559.610657 
	C883.846313,558.275269 879.840576,555.116516 879.268982,549.616760 
	C877.756836,535.068970 880.173218,521.685181 892.990417,511.827881 
z"/>
</svg>